<?xml version="1.0" encoding="UTF-8" standalone="no"?>
<!-- Created with Inkscape (http://www.inkscape.org/) -->

<svg
   xmlns:dc="http://purl.org/dc/elements/1.1/"
   xmlns:cc="http://creativecommons.org/ns#"
   xmlns:rdf="http://www.w3.org/1999/02/22-rdf-syntax-ns#"
   xmlns:svg="http://www.w3.org/2000/svg"
   xmlns="http://www.w3.org/2000/svg"
   xmlns:sodipodi="http://sodipodi.sourceforge.net/DTD/sodipodi-0.dtd"
   xmlns:inkscape="http://www.inkscape.org/namespaces/inkscape"
   width="744.09448819"
   height="1052.3622047"
   id="svg2"
   version="1.1"
   inkscape:version="0.48.5 r10040"
   sodipodi:docname="New document 1">
  <defs
     id="defs4">
    <inkscape:perspective
       sodipodi:type="inkscape:persp3d"
       inkscape:vp_x="0 : 526.18109 : 1"
       inkscape:vp_y="0 : 1000 : 0"
       inkscape:vp_z="744.09448 : 526.18109 : 1"
       inkscape:persp3d-origin="372.04724 : 350.78739 : 1"
       id="perspective2995" />
  </defs>
  <sodipodi:namedview
     id="base"
     pagecolor="#ffffff"
     bordercolor="#666666"
     borderopacity="1.0"
     inkscape:pageopacity="0.0"
     inkscape:pageshadow="2"
     inkscape:zoom="0.7"
     inkscape:cx="375"
     inkscape:cy="967.33869"
     inkscape:document-units="px"
     inkscape:current-layer="layer1"
     showgrid="true"
     showguides="false"
     inkscape:snap-global="true"
     inkscape:window-width="1370"
     inkscape:window-height="680"
     inkscape:window-x="4"
     inkscape:window-y="0"
     inkscape:window-maximized="0">
    <inkscape:grid
       type="xygrid"
       id="grid2985" />
  </sodipodi:namedview>
  <metadata
     id="metadata7">
    <rdf:RDF>
      <cc:Work
         rdf:about="">
        <dc:format>image/svg+xml</dc:format>
        <dc:type
           rdf:resource="http://purl.org/dc/dcmitype/StillImage" />
        <dc:title></dc:title>
      </cc:Work>
    </rdf:RDF>
  </metadata>
  <g
     inkscape:label="Layer 1"
     inkscape:groupmode="layer"
     id="layer1">
    <path
       style="fill:none;stroke:#000000;stroke-width:1px;stroke-linecap:butt;stroke-linejoin:miter;stroke-opacity:1"
       d="m 0,412.36218 c 0,-40 0,0 0,0 z"
       id="path2997"
       inkscape:connector-curvature="0" />
    <rect
       style="fill:#808080"
       id="rect3021"
       width="220"
       height="40"
       x="260"
       y="332.36218" />
    <rect
       style="fill:#cccccc"
       id="rect3053"
       width="60"
       height="20"
       x="660"
       y="12.362183" />
    <rect
       style="fill:#cccccc"
       id="rect3055"
       width="40"
       height="20"
       x="580"
       y="12.362183" />
    <rect
       style="fill:#cccccc"
       id="rect3057"
       width="60"
       height="20"
       x="420"
       y="12.362183" />
    <rect
       style="fill:#cccccc"
       id="rect3074"
       width="20"
       height="20"
       x="620"
       y="12.362183" />
    <rect
       style="fill:#cccccc"
       id="rect3076"
       width="60"
       height="20"
       x="500"
       y="12.362183" />
    <path
       style="fill:#1a1a1a"
       d="m 261.05479,353.16112 0,-19.1929 109.09648,0 109.09647,0 0,19.1929 0,19.1929 -109.09647,0 -109.09648,0 0,-19.1929 z"
       id="path3078"
       inkscape:connector-curvature="0" />
    <path
       style="fill:#666666"
       d="m 420.6589,21.831086 0,-9.091372 29.29442,0 29.29442,0 0,9.091372 0,9.091373 -29.29442,0 -29.29442,0 0,-9.091373 z"
       id="path3080"
       inkscape:connector-curvature="0" />
    <path
       style="fill:#666666"
       d="m 501.4711,21.831086 0,-9.091372 29.29442,0 29.29443,0 0,9.091372 0,9.091373 -29.29443,0 -29.29442,0 0,-9.091373 z"
       id="path3082"
       inkscape:connector-curvature="0" />
    <path
       style="fill:#666666"
       d="m 580.263,21.831086 0,-9.091372 19.1929,0 19.19289,0 0,9.091372 0,9.091373 -19.19289,0 -19.1929,0 0,-9.091373 z"
       id="path3084"
       inkscape:connector-curvature="0" />
    <path
       style="fill:#666666"
       d="m 661.0752,21.831086 0,-9.091372 29.29442,0 29.29443,0 0,9.091372 0,9.091373 -29.29443,0 -29.29442,0 0,-9.091373 z"
       id="path3086"
       inkscape:connector-curvature="0" />
    <path
       style="fill:#b3b3b3"
       d="m 620.6691,21.831086 0,-9.091372 9.09137,0 9.09137,0 0,9.091372 0,9.091373 -9.09137,0 -9.09137,0 0,-9.091373 z"
       id="path3088"
       inkscape:connector-curvature="0" />
    <path
       style="fill:#b3b3b3"
       d="m 620.6691,21.831086 0,-9.091372 9.09137,0 9.09137,0 0,9.091372 0,9.091373 -9.09137,0 -9.09137,0 0,-9.091373 z"
       id="path3136"
       inkscape:connector-curvature="0" />
    <path
       style="fill:#cccccc"
       d=""
       id="path3142"
       inkscape:connector-curvature="0" />
    <path
       style="fill:#cccccc"
       d=""
       id="path3144"
       inkscape:connector-curvature="0" />
    <path
       style="fill:#cccccc"
       d=""
       id="path3146"
       inkscape:connector-curvature="0" />
    <path
       style="fill:#1a1a1a"
       d="m 420.6589,21.831086 0,-9.091372 29.29442,0 29.29442,0 0,9.091372 0,9.091373 -29.29442,0 -29.29442,0 0,-9.091373 z"
       id="path3154"
       inkscape:connector-curvature="0" />
    <path
       style="fill:#1a1a1a"
       d="m 501.4711,21.831086 0,-9.091372 29.29442,0 29.29443,0 0,9.091372 0,9.091373 -29.29443,0 -29.29442,0 0,-9.091373 z"
       id="path3156"
       inkscape:connector-curvature="0" />
    <path
       style="fill:#1a1a1a"
       d="m 580.263,21.831086 0,-9.091372 19.1929,0 19.19289,0 0,9.091372 0,9.091373 -19.19289,0 -19.1929,0 0,-9.091373 z"
       id="path3158"
       inkscape:connector-curvature="0" />
    <path
       style="fill:#1a1a1a"
       d="m 620.6691,21.831086 0,-9.091372 9.09137,0 9.09137,0 0,9.091372 0,9.091373 -9.09137,0 -9.09137,0 0,-9.091373 z"
       id="path3160"
       inkscape:connector-curvature="0" />
    <path
       style="fill:#1a1a1a"
       d="m 661.0752,21.831086 0,-9.091372 29.29442,0 29.29443,0 0,9.091372 0,9.091373 -29.29443,0 -29.29442,0 0,-9.091373 z"
       id="path3162"
       inkscape:connector-curvature="0" />
    <path
       style="fill:none;stroke:#000000;stroke-width:1px;stroke-linecap:butt;stroke-linejoin:miter;stroke-opacity:1"
       d="m -80,372.36218 900,0"
       id="path3164"
       inkscape:connector-curvature="0" />
    <rect
       style="fill:#b3b3b3"
       id="rect3166"
       width="120"
       height="120"
       x="181.57466"
       y="414.50485" />
    <rect
       style="fill:#b3b3b3"
       id="rect3168"
       width="120"
       height="120"
       x="180.14609"
       y="551.64771" />
    <rect
       style="fill:#b3b3b3"
       id="rect3170"
       width="120"
       height="120"
       x="321.57465"
       y="411.64771" />
    <rect
       style="fill:#b3b3b3"
       id="rect3172"
       width="120"
       height="120"
       x="321.57465"
       y="551.64771" />
    <rect
       style="fill:#b3b3b3"
       id="rect3174"
       width="120"
       height="120"
       x="460.14609"
       y="413.07626" />
    <rect
       style="fill:#b3b3b3"
       id="rect3176"
       width="120"
       height="120"
       x="461.57465"
       y="553.07629" />
    <rect
       style="fill:#b3b3b3"
       id="rect3178"
       width="121.42857"
       height="120.00003"
       x="600.14606"
       y="414.50485" />
    <rect
       style="fill:#b3b3b3"
       id="rect3180"
       width="140"
       height="262.85715"
       x="20"
       y="409.50504" />
    <rect
       style="fill:#b3b3b3"
       id="rect3182"
       width="119.99999"
       height="121.4286"
       x="600"
       y="553.79077" />
    <path
       style="fill:none;stroke:#000000;stroke-width:1px;stroke-linecap:butt;stroke-linejoin:miter;stroke-opacity:1"
       d="m 20,412.36218 140,260"
       id="path3184"
       inkscape:connector-curvature="0" />
    <path
       style="fill:none;stroke:#000000;stroke-width:1px;stroke-linecap:butt;stroke-linejoin:miter;stroke-opacity:1"
       d="m 20,672.36218 140,-260"
       id="path3186"
       inkscape:connector-curvature="0" />
    <path
       style="fill:none;stroke:#000000;stroke-width:1px;stroke-linecap:butt;stroke-linejoin:miter;stroke-opacity:1"
       d="m 180,412.36218 120,120 0,0 0,0"
       id="path3188"
       inkscape:connector-curvature="0" />
    <path
       style="fill:none;stroke:#000000;stroke-width:1px;stroke-linecap:butt;stroke-linejoin:miter;stroke-opacity:1"
       d="m 300,412.36218 -120,120 0,0 0,0"
       id="path3190"
       inkscape:connector-curvature="0" />
    <path
       style="fill:none;stroke:#000000;stroke-width:1px;stroke-linecap:butt;stroke-linejoin:miter;stroke-opacity:1"
       d="m 180,552.36218 120,120"
       id="path3192"
       inkscape:connector-curvature="0" />
    <path
       style="fill:none;stroke:#000000;stroke-width:1px;stroke-linecap:butt;stroke-linejoin:miter;stroke-opacity:1"
       d="m 300,552.36218 -120,120"
       id="path3194"
       inkscape:connector-curvature="0" />
    <path
       style="fill:none;stroke:#000000;stroke-width:1px;stroke-linecap:butt;stroke-linejoin:miter;stroke-opacity:1"
       d="m 320,552.36218 120,120"
       id="path3196"
       inkscape:connector-curvature="0" />
    <path
       style="fill:none;stroke:#000000;stroke-width:1px;stroke-linecap:butt;stroke-linejoin:miter;stroke-opacity:1"
       d="m 440,552.36218 -120,120 0,0 0,0"
       id="path3198"
       inkscape:connector-curvature="0" />
    <path
       style="fill:none;stroke:#000000;stroke-width:1px;stroke-linecap:butt;stroke-linejoin:miter;stroke-opacity:1"
       d="m 440,412.36218 -120,120"
       id="path3200"
       inkscape:connector-curvature="0" />
    <path
       style="fill:none;stroke:#000000;stroke-width:1px;stroke-linecap:butt;stroke-linejoin:miter;stroke-opacity:1"
       d="m 320,412.36218 120,120"
       id="path3202"
       inkscape:connector-curvature="0" />
    <path
       style="fill:none;stroke:#000000;stroke-width:1px;stroke-linecap:butt;stroke-linejoin:miter;stroke-opacity:1"
       d="m 460,532.36218 120,-120"
       id="path3204"
       inkscape:connector-curvature="0" />
    <path
       style="fill:none;stroke:#000000;stroke-width:1px;stroke-linecap:butt;stroke-linejoin:miter;stroke-opacity:1"
       d="m 580,532.36218 -120,-120 0,0 0,0"
       id="path3206"
       inkscape:connector-curvature="0" />
    <path
       style="fill:none;stroke:#000000;stroke-width:1px;stroke-linecap:butt;stroke-linejoin:miter;stroke-opacity:1"
       d="m 460,552.36218 120,120"
       id="path3208"
       inkscape:connector-curvature="0" />
    <path
       style="fill:none;stroke:#000000;stroke-width:1px;stroke-linecap:butt;stroke-linejoin:miter;stroke-opacity:1"
       d="m 580,552.36218 -120,120"
       id="path3210"
       inkscape:connector-curvature="0" />
    <path
       style="fill:none;stroke:#000000;stroke-width:1px;stroke-linecap:butt;stroke-linejoin:miter;stroke-opacity:1"
       d="m 720,552.36218 -120,120 0,0 0,0"
       id="path3212"
       inkscape:connector-curvature="0" />
    <path
       style="fill:none;stroke:#000000;stroke-width:1px;stroke-linecap:butt;stroke-linejoin:miter;stroke-opacity:1"
       d="m 720,672.36218 -120,-120"
       id="path3214"
       inkscape:connector-curvature="0" />
    <path
       style="fill:none;stroke:#000000;stroke-width:1px;stroke-linecap:butt;stroke-linejoin:miter;stroke-opacity:1"
       d="m 600,532.36218 120,-120"
       id="path3216"
       inkscape:connector-curvature="0" />
    <path
       style="fill:none;stroke:#000000;stroke-width:1px;stroke-linecap:butt;stroke-linejoin:miter;stroke-opacity:1"
       d="m 600,412.36218 120,120"
       id="path3218"
       inkscape:connector-curvature="0" />
    <rect
       style="fill:#666666"
       id="rect3220"
       width="140"
       height="140"
       x="20"
       y="672.36218" />
    <rect
       style="fill:#b3b3b3"
       id="rect3224"
       width="120"
       height="120"
       x="180"
       y="692.36218" />
    <rect
       style="fill:#b3b3b3"
       id="rect3226"
       width="120"
       height="120"
       x="320"
       y="692.36218" />
    <rect
       style="fill:#b3b3b3"
       id="rect3228"
       width="120"
       height="120"
       x="460"
       y="692.36218" />
    <rect
       style="fill:#b3b3b3"
       id="rect3230"
       width="120"
       height="120"
       x="600"
       y="692.36218" />
    <path
       style="fill:none;stroke:#000000;stroke-width:1px;stroke-linecap:butt;stroke-linejoin:miter;stroke-opacity:1"
       d="m 180,692.36218 120,120"
       id="path3232"
       inkscape:connector-curvature="0" />
    <path
       style="fill:none;stroke:#000000;stroke-width:1px;stroke-linecap:butt;stroke-linejoin:miter;stroke-opacity:1"
       d="m 300,692.36218 -120,120"
       id="path3234"
       inkscape:connector-curvature="0" />
    <path
       style="fill:none;stroke:#000000;stroke-width:1px;stroke-linecap:butt;stroke-linejoin:miter;stroke-opacity:1"
       d="m 320,812.36218 120,-120"
       id="path3236"
       inkscape:connector-curvature="0" />
    <path
       style="fill:none;stroke:#000000;stroke-width:1px;stroke-linecap:butt;stroke-linejoin:miter;stroke-opacity:1"
       d="m 320,692.36218 120,120"
       id="path3238"
       inkscape:connector-curvature="0" />
    <path
       style="fill:none;stroke:#000000;stroke-width:1px;stroke-linecap:butt;stroke-linejoin:miter;stroke-opacity:1"
       d="m 460,692.36218 120,120"
       id="path3240"
       inkscape:connector-curvature="0" />
    <path
       style="fill:none;stroke:#000000;stroke-width:1px;stroke-linecap:butt;stroke-linejoin:miter;stroke-opacity:1"
       d="m 580,692.36218 -120,120 0,0 0,0"
       id="path3242"
       inkscape:connector-curvature="0" />
    <path
       style="fill:none;stroke:#000000;stroke-width:1px;stroke-linecap:butt;stroke-linejoin:miter;stroke-opacity:1"
       d="m 600,692.36218 120,120"
       id="path3244"
       inkscape:connector-curvature="0" />
    <path
       style="fill:none;stroke:#000000;stroke-width:1px;stroke-linecap:butt;stroke-linejoin:miter;stroke-opacity:1"
       d="m 720,692.36218 -120,120"
       id="path3246"
       inkscape:connector-curvature="0" />
    <rect
       style="fill:#b3b3b3"
       id="rect3248"
       width="700"
       height="180"
       x="20"
       y="852.36218" />
    <path
       style="fill:none;stroke:#000000;stroke-width:1px;stroke-linecap:butt;stroke-linejoin:miter;stroke-opacity:1"
       d="M 20,852.36218 720,1032.3622"
       id="path3250"
       inkscape:connector-curvature="0" />
    <path
       style="fill:none;stroke:#000000;stroke-width:1px;stroke-linecap:butt;stroke-linejoin:miter;stroke-opacity:1"
       d="M 720,852.36218 20,1032.3622"
       id="path3252"
       inkscape:connector-curvature="0" />
    <rect
       style="fill:#b3b3b3"
       id="rect3254"
       width="700"
       height="240"
       x="20"
       y="72.362183" />
    <path
       style="fill:none;stroke:#000000;stroke-width:1px;stroke-linecap:butt;stroke-linejoin:miter;stroke-opacity:1"
       d="M 20,312.36218 720,72.362183"
       id="path3256"
       inkscape:connector-curvature="0" />
    <path
       style="fill:none;stroke:#000000;stroke-width:1px;stroke-linecap:butt;stroke-linejoin:miter;stroke-opacity:1"
       d="M 20,72.362183 720,312.36218"
       id="path3258"
       inkscape:connector-curvature="0" />
    <rect
       style="fill:#4d4d4d"
       id="rect3260"
       width="180"
       height="40"
       x="280"
       y="212.36218" />
    <rect
       style="fill:#4d4d4d"
       id="rect3262"
       width="340"
       height="20"
       x="200"
       y="272.36218" />
    <rect
       style="fill:#4d4d4d"
       id="rect3264"
       width="160"
       height="40"
       x="20"
       y="12.362183" />
    <rect
       style="fill:#4d4d4d"
       id="rect3266"
       width="260"
       height="180"
       x="460"
       y="852.36218" />
  </g>
</svg>
